<svg width="57" height="194" viewBox="0 0 57 194" fill="none" xmlns="http://www.w3.org/2000/svg">
<path d="M0.581055 180.6H5.78107C17.1811 180.6 20.1811 175.8 20.1811 161.6C20.1811 148.6 19.1811 137.4 19.1811 122.2C19.1811 107 23.1811 99.8 33.5811 97.2V96.2C23.1811 93.6 19.1811 86.6 19.1811 71.2C19.1811 56 20.1811 44.8 20.1811 31.8C20.1811 17.6 17.1811 12.6 5.78107 12.6H0.581055V0H11.7811C30.3811 0 38.9811 7.2 38.9811 30.6C38.9811 46.6 36.9811 57.8 36.9811 72.6C36.9811 80.4 41.1811 89.6 56.1811 89.6V103.6C41.1811 103.6 36.9811 112.4 36.9811 121C36.9811 135.8 38.9811 146.8 38.9811 162.8C38.9811 186.2 30.3811 193.4 11.7811 193.4H0.581055V180.6Z" fill="black"/>
</svg>
