<svg width="56" height="194" viewBox="0 0 56 194" fill="none" xmlns="http://www.w3.org/2000/svg">
<path d="M44.7252 193.4C26.1252 193.4 17.7252 186.2 17.7252 162.8C17.7252 146.8 19.7252 135.8 19.7252 121C19.7252 112.4 15.5252 103.6 0.325195 103.6V89.6C15.5252 89.6 19.7252 80.4 19.7252 72.6C19.7252 57.8 17.7252 46.6 17.7252 30.6C17.7252 7.2 26.1252 0 44.7252 0H55.9252V12.6H50.7252C39.3252 12.6 36.3252 17.6 36.3252 31.8C36.3252 44.8 37.5252 56 37.5252 71.2C37.5252 86.6 33.3252 93.6 22.9252 96.2V97.2C33.3252 99.8 37.5252 107 37.5252 122.2C37.5252 137.4 36.3252 148.6 36.3252 161.6C36.3252 175.8 39.3252 180.6 50.7252 180.6H55.9252V193.4H44.7252Z" fill="black"/>
</svg>
